# xmcd
#
# Track frame offsets: 
#        150
#        12078
#        23935
#        37373
#        49682
#        62756
#        75620
#        88807
#        101029
#        112800
#        125658
#        137140
#        150441
#        165656
#        178806
#        191133
#        204669
#        218142
#        231960
#        243542
#        255346
#        269023
#        281801
#        295379
#        307550
#        319436
#
# Disc length: 4449 seconds
#
# Revision: 0
# Processed by: cddbd v1.5.2PL0 Copyright (c) Steve Scherf et al.
# Submitted via: ExactAudioCopyFreeDBPlugin 1.0
#
DISCID=84115f1a
DTITLE=Lightnin' Hopkins - The Houston Hurricane #3
DYEAR=2011
DGENRE=Blues
TTITLE0=Beggin' You to Stay (The Houston Hurricane)
TTITLE1=Bad Luck and Trouble (The Houston Hurricane)
TTITLE2=Last Affair (The Houston Hurricane)
TTITLE3=Lonesome Dog Blues (The Houston Hurricane)
TTITLE4=Needed Time (The Houston Hurricane)
TTITLE5=One Kind Favor (The Houston Hurricane)
TTITLE6=Another Fool in Town (The Houston Hurricane)
TTITLE7=Candy Kitchen (The Houston Hurricane)
TTITLE8=Black Cat (The Houston Hurricane)
TTITLE9=Santa Fe Blues (The Houston Hurricane)
TTITLE10=Some Day Baby (The Houston Hurricane)
TTITLE11=Black Cat Bone (The Houston Hurricane)
TTITLE12=Disagreeable (The Houston Hurricane)
TTITLE13=Dark and Cloudy (The Houston Hurricane)
TTITLE14=Coffee Blues (The Houston Hurricane)
TTITLE15=Praying Ground Blues (The Houston Hurricane)
TTITLE16=Give Me Central 209 (The Houston Hurricane)
TTITLE17=Long Way From Texas (The Houston Hurricane)
TTITLE18=You Caused My Heart to Weep (The Houston Hurricane)
TTITLE19=Tap Dance Boogie (The Houston Hurricane)
TTITLE20=Dirty House (The Houston Hurricane)
TTITLE21=Freight Train Blues (The Houston Hurricane)
TTITLE22=One Kind of Favour (The Houston Hurricane)
TTITLE23=Contrary Mary (The Houston Hurricane)
TTITLE24=I'm Beggin' You (The Houston Hurricane)
TTITLE25=Sad News From Korea (The Houston Hurricane)
EXTD=
EXTT0=
EXTT1=
EXTT2=
EXTT3=
EXTT4=
EXTT5=
EXTT6=
EXTT7=
EXTT8=
EXTT9=
EXTT10=
EXTT11=
EXTT12=
EXTT13=
EXTT14=
EXTT15=
EXTT16=
EXTT17=
EXTT18=
EXTT19=
EXTT20=
EXTT21=
EXTT22=
EXTT23=
EXTT24=
EXTT25=
PLAYORDER=
